<svg width="47" height="41" viewBox="0 0 47 41" fill="none" xmlns="http://www.w3.org/2000/svg">
<g clip-path="url(#clip0)">
<path d="M9.49506 12.9687V18.3231C9.49506 19.5011 10.4571 20.4649 11.633 20.4649C12.8089 20.4649 13.771 19.5011 13.771 18.3231V12.9687H19.1159C20.2917 12.9687 21.2538 12.0049 21.2538 10.8269C21.2538 9.64897 20.2917 8.68517 19.1159 8.68517H13.771V3.33072C13.771 2.15276 12.8089 1.18896 11.633 1.18896C10.4571 1.18896 9.49506 2.15276 9.49506 3.33072V8.68517H4.15016C2.97431 8.68517 2.01221 9.64897 2.01221 10.8269C2.01221 12.0049 2.97431 12.9687 4.15016 12.9687H9.49506ZM27.6677 24.7484C26.4918 24.7484 25.5297 25.7122 25.5297 26.8902C25.5297 28.0681 26.4918 29.0319 27.6677 29.0319H42.6334C43.8093 29.0319 44.7714 28.0681 44.7714 26.8902C44.7714 25.7122 43.8093 24.7484 42.6334 24.7484H27.6677ZM41.992 1.8315C41.1368 0.974803 39.8541 0.974803 38.9989 1.8315L4.79155 36.0998C3.93637 36.9565 3.93637 38.2416 4.79155 39.0983C5.64674 39.955 6.92951 39.955 7.78469 39.0983L41.992 4.82999C42.8472 3.97325 42.8472 2.58113 41.992 1.8315ZM42.6334 33.3155H27.6677C26.4918 33.3155 25.5297 34.2793 25.5297 35.4572C25.5297 36.6353 26.4918 37.599 27.6677 37.599H42.6334C43.8093 37.599 44.7714 36.6353 44.7714 35.4572C44.7714 34.2793 43.8093 33.3155 42.6334 33.3155Z" fill="black"/>
</g>
<defs>
<clipPath id="clip0">
<rect width="46.8293" height="40.9756" fill="white"/>
</clipPath>
</defs>
</svg>
