<svg width="47" height="47" viewBox="0 0 47 47" fill="none" xmlns="http://www.w3.org/2000/svg">
<g clip-path="url(#clip0)">
<path d="M23.4146 46.8293C10.5366 46.8293 0 36.2927 0 23.4146C0 10.5366 10.5366 0 23.4146 0C28.3903 0 33.0732 1.46342 37.1707 4.39025C37.7561 4.97561 38.0488 5.85366 37.4634 6.43903C36.8781 7.02439 36 7.31708 35.4146 6.73171C31.9024 4.09756 27.8049 2.92683 23.4146 2.92683C12 2.92683 2.92683 12 2.92683 23.4146C2.92683 34.8293 12 43.9025 23.4146 43.9025C34.8293 43.9025 43.9025 34.8293 43.9025 23.4146C43.9025 19.9024 43.0244 16.3902 41.2683 13.1707C40.9756 12.5854 40.9756 11.7073 41.8537 11.122C42.439 10.8293 43.3171 10.8293 43.9025 11.7073C45.6585 15.2195 46.8293 19.3171 46.8293 23.4146C46.8293 36.2927 36.2927 46.8293 23.4146 46.8293ZM30.7317 20.7805H27.8049C27.2195 20.7805 25.4634 21.0732 24.8781 20.7805C24.8781 20.4878 25.1707 19.6098 25.1707 19.3171C25.4634 18.1463 25.7561 17.2683 26.0488 16.0976L27.5122 11.4146C27.5122 10.5366 26.6342 10.2439 26.3415 10.8293L15.8049 25.4634C15.5122 25.7561 15.8049 26.3415 16.3902 26.3415H20.4878C20.7805 26.3415 21.9512 26.0488 22.2439 26.3415C22.2439 26.3415 21.9512 27.2195 21.9512 27.5122C21.0732 30.439 20.4878 33.0732 19.6098 36C19.3171 36.5854 20.1951 36.8781 20.4878 36.2927L31.0244 21.6585C31.3171 21.3659 31.0244 20.7805 30.7317 20.7805Z" fill="black"/>
</g>
<defs>
<clipPath id="clip0">
<rect width="46.8293" height="46.8293" fill="white"/>
</clipPath>
</defs>
</svg>
